PathFileType	4	(X/Y/Z)	D:\TRACE\v60_Jaco2_6-2-23\JustArmDRS_Motion3_5-v60.trc
DataRate	CameraRate	NumFrames	NumMarkers	Units	OrigDataRate	OrigDataStartFrame	OrigNumFrames
100.00	100.00	      14	9	mm	100.00	876	      7000
Frame#	Time	front left toe			Front right toe			aft left toe			aft right toe			Arm			FL body			FR body			AL Body			AR Body			
		X1	Y1	Z1	X2	Y2	Z2	X3	Y3	Z3	X4	Y4	Z4	X5	Y5	Z5	X6	Y6	Z6	X7	Y7	Z7	X8	Y8	Z8	X9	Y9	Z9	

876	8.750	-161.04994	5.41704	-241.83546	238.20979	8.11073	-175.60271	-250.48357	37.30916	395.17816	159.76364	35.37264	410.38873	68.47633	1174.09143	-435.32153	-24.56270	554.01733	-360.71259	133.03801	553.66461	-339.00876	-144.31363	608.38214	574.66754	6.14232	599.69427	595.45319	
877	8.760	-161.07378	5.33708	-241.69901	237.94041	8.10624	-175.53886	-250.66415	37.23877	395.18408	159.70305	35.23649	410.42831	68.59672	1174.12122	-436.14142	-24.60498	554.12292	-360.65353	132.92642	553.79736	-338.90338	-144.44791	608.34082	574.75116	6.05284	599.59363	595.61035	
878	8.770	-161.10597	5.42383	-241.64655	237.94673	8.15676	-175.53450	-250.69749	37.23270	395.24445	159.68515	35.10465	410.45840	68.63523	1174.07605	-437.15781	-24.58246	554.19641	-360.59473	132.86859	553.96075	-338.94797	-144.46361	608.29523	574.78369	6.01938	599.50806	595.68030	
879	8.780	-161.08704	5.47891	-241.62798	237.94255	8.16333	-175.50113	-250.74135	37.14791	395.24908	159.68126	35.05034	410.55319	68.78049	1174.23633	-437.93927	-24.62576	554.31909	-360.55731	132.90633	554.08124	-338.86301	-144.48906	608.27417	574.84113	6.02583	599.40094	595.75165	
880	8.790	-161.13464	5.54258	-241.58369	237.98727	8.22401	-175.48891	-250.77357	37.07695	395.21512	159.61557	34.83055	410.55917	68.79420	1174.21143	-438.84253	-24.64330	554.46954	-360.56750	132.82150	554.20410	-338.87622	-144.48911	608.21570	574.91101	5.97652	599.34192	595.77606	
881	8.800	-161.16098	5.61339	-241.54297	237.89600	8.22180	-175.51730	-250.76332	36.93232	395.26831	159.50774	34.68840	410.56924	69.04549	1174.28101	-439.63785	-24.67210	554.57190	-360.55045	132.28218	554.44971	-338.85193	-144.58243	608.09290	574.93945	5.86439	599.19324	595.81281	
882	8.810	-161.18462	5.69126	-241.48535	237.81659	8.19816	-175.56699	-250.76282	36.75455	395.32111	159.44554	34.58530	410.62650	69.17257	1174.24365	-440.17807	-24.66912	554.60474	-360.49377	132.27034	554.51453	-338.81268	-144.56248	607.99683	575.01447	5.79638	599.12817	595.82892	
883	8.820	-161.23914	5.79093	-241.45839	237.74788	8.17050	-175.58740	-250.79880	36.59609	395.39346	159.27719	34.36462	410.65704	69.15684	1174.14063	-440.94653	-24.66566	554.70190	-360.45618	132.17279	554.59045	-338.77524	-144.55264	607.91504	575.07849	5.71132	599.05933	595.85492	
884	8.830	-161.21788	5.81654	-241.40079	237.79237	8.20048	-175.55263	-250.78397	36.47478	395.45471	159.23775	34.19201	410.66388	69.33289	1174.14746	-441.39825	-24.65035	554.76062	-360.38910	132.17201	554.64960	-338.73972	-144.57825	607.79773	575.10083	5.74145	598.99304	595.88525	
885	8.840	-161.20444	5.92944	-241.38052	237.73837	8.23782	-175.59793	-250.78735	36.36037	395.52933	159.28343	34.09988	410.74088	69.67497	1174.06543	-441.76312	-24.65298	554.82764	-360.34647	132.20554	554.71057	-338.66812	-144.59781	607.70453	575.11414	5.56901	599.06006	595.78052	
886	8.850	-161.21649	5.98877	-241.35466	237.76102	8.30913	-175.58971	-250.76047	36.24266	395.57428	159.22128	33.94815	410.82101	70.00860	1173.93506	-441.99316	-24.63577	554.89294	-360.22763	132.20697	554.75934	-338.59259	-144.63226	607.60992	575.12225	5.73710	598.80609	595.97217	
887	8.860	-161.14206	6.02136	-241.28235	237.83723	8.36606	-175.57167	-250.71997	36.04853	395.64221	159.19807	33.86502	410.88983	70.37189	1173.85889	-442.08221	-24.59262	554.96100	-360.10852	132.18503	554.85156	-338.46631	-144.59598	607.44232	575.16394	5.83272	598.63196	596.11151	
888	8.870	-161.15810	6.09550	-241.21721	237.69852	8.40737	-175.60655	-250.73222	35.98110	395.73523	159.11198	33.73170	410.96140	70.77301	1173.83630	-442.07233	-24.72233	555.12384	-360.04144	132.20058	554.95581	-338.36267	-144.54874	607.28125	575.26678	5.91730	598.45886	596.20966	
889	8.880	-161.08524	6.12436	-241.21906	237.85480	8.45381	-175.46765	-250.64667	35.75002	395.83841	159.14334	33.69855	411.05157	71.21138	1173.91663	-441.91232	-24.64015	555.29431	-359.93591	132.22357	555.02997	-338.29324	-144.34743	607.18933	575.37891	5.93294	598.35620	596.30920	
